<?xml version="1.0" encoding="UTF-8" standalone="no"?>
<svg
   xmlns:dc="http://purl.org/dc/elements/1.1/"
   xmlns:cc="http://creativecommons.org/ns#"
   xmlns:rdf="http://www.w3.org/1999/02/22-rdf-syntax-ns#"
   xmlns:svg="http://www.w3.org/2000/svg"
   xmlns="http://www.w3.org/2000/svg"
   xmlns:sodipodi="http://sodipodi.sourceforge.net/DTD/sodipodi-0.dtd"
   xmlns:inkscape="http://www.inkscape.org/namespaces/inkscape"
   height="32px"
   version="1.1"
   viewBox="0 0 32 32"
   width="32px"
   id="svg11"
   sodipodi:docname="icon_new_slide.svg"
   inkscape:version="0.92.2 (unknown)">
  <metadata
     id="metadata15">
    <rdf:RDF>
      <cc:Work
         rdf:about="">
        <dc:format>image/svg+xml</dc:format>
        <dc:type
           rdf:resource="http://purl.org/dc/dcmitype/StillImage" />
      </cc:Work>
    </rdf:RDF>
  </metadata>
  <sodipodi:namedview
     pagecolor="#ffffff"
     bordercolor="#666666"
     borderopacity="1"
     objecttolerance="10"
     gridtolerance="10"
     guidetolerance="10"
     inkscape:pageopacity="0"
     inkscape:pageshadow="2"
     inkscape:window-width="789"
     inkscape:window-height="480"
     id="namedview13"
     showgrid="false"
     inkscape:zoom="7.375"
     inkscape:cx="16"
     inkscape:cy="16"
     inkscape:window-x="0"
     inkscape:window-y="27"
     inkscape:window-maximized="0"
     inkscape:current-layer="Page-1" />
  <title
     id="title2" />
  <desc
     id="desc4" />
  <defs
     id="defs6" />
  <g
     fill="none"
     fill-rule="evenodd"
     id="Page-1"
     stroke="none"
     stroke-width="1">
    <g
       fill="#157EFB"
       id="icon-81-document-add"
       style="fill:#ffffff;fill-opacity:1">
      <path
         d="M21,25 L21,22 L22,22 L22,25 L25,25 L25,26 L22,26 L22,29 L21,29 L21,26 L18,26 L18,25 L21,25 L21,25 Z M16.0218178,29 L6.99742191,29 C5.89092539,29 5,28.1012878 5,26.9926701 L5,4.00732994 C5,2.89833832 5.8992496,2 7.0085302,2 L17,2 L17,8.00189865 C17,9.11329365 17.8980806,10 19.0059191,10 L24,10 L24,19.4981633 C23.2304079,19.1772281 22.3859009,19 21.5,19 C17.9101489,19 15,21.9101489 15,25.5 C15,26.7886423 15.3749964,27.9896995 16.0218178,29 L16.0218178,29 L16.0218178,29 Z M18,2 L18,7.99707067 C18,8.55097324 18.4509752,9 18.990778,9 L24,9 L18,2 L18,2 Z M21.5,31 C24.5375663,31 27,28.5375663 27,25.5 C27,22.4624337 24.5375663,20 21.5,20 C18.4624337,20 16,22.4624337 16,25.5 C16,28.5375663 18.4624337,31 21.5,31 L21.5,31 Z"
         id="document-add"
         style="fill:#ffffff;fill-opacity:1" />
    </g>
  </g>
</svg>
