<?xml version="1.0" encoding="UTF-8" standalone="no"?>
<!-- Generator: Adobe Illustrator 16.2.1, SVG Export Plug-In . SVG Version: 6.00 Build 0)  -->

<svg
   xmlns:dc="http://purl.org/dc/elements/1.1/"
   xmlns:cc="http://creativecommons.org/ns#"
   xmlns:rdf="http://www.w3.org/1999/02/22-rdf-syntax-ns#"
   xmlns:svg="http://www.w3.org/2000/svg"
   xmlns="http://www.w3.org/2000/svg"
   xmlns:sodipodi="http://sodipodi.sourceforge.net/DTD/sodipodi-0.dtd"
   xmlns:inkscape="http://www.inkscape.org/namespaces/inkscape"
   version="1.1"
   id="Layer_1"
   x="0px"
   y="0px"
   width="512px"
   height="512px"
   viewBox="0 0 512 512"
   enable-background="new 0 0 512 512"
   xml:space="preserve"
   sodipodi:docname="icon_to_blender.svg"
   inkscape:version="0.92.3 (unknown)"><metadata
     id="metadata21"><rdf:RDF><cc:Work
         rdf:about=""><dc:format>image/svg+xml</dc:format><dc:type
           rdf:resource="http://purl.org/dc/dcmitype/StillImage" /><dc:title /></cc:Work></rdf:RDF></metadata><defs
     id="defs19" /><sodipodi:namedview
     pagecolor="#ffffff"
     bordercolor="#666666"
     borderopacity="1"
     objecttolerance="10"
     gridtolerance="10"
     guidetolerance="10"
     inkscape:pageopacity="0"
     inkscape:pageshadow="2"
     inkscape:window-width="1920"
     inkscape:window-height="1025"
     id="namedview17"
     showgrid="false"
     inkscape:zoom="0.65186406"
     inkscape:cx="-490.83032"
     inkscape:cy="244.10919"
     inkscape:window-x="0"
     inkscape:window-y="27"
     inkscape:window-maximized="1"
     inkscape:current-layer="g13878"
     showguides="true"
     inkscape:guide-bbox="true"><sodipodi:guide
       position="76.703108,520.04708"
       orientation="1,0"
       id="guide13880"
       inkscape:locked="false" /></sodipodi:namedview><g
     id="g14"><g
       id="g12"><g
         id="g13878"
         transform="matrix(6.0236407,0,0,6.0236407,515.82084,-1531.0798)"><path
           inkscape:connector-curvature="0"
           d="m -41.445142,290.07669 c 0.13251,-2.36251 1.291249,-4.44499 3.036249,-5.92124 1.713748,-1.45001 4.017498,-2.33624 6.533749,-2.33624 2.512501,0 4.817499,0.88623 6.529999,2.33624 1.746252,1.47625 2.9025,3.55873 3.03625,5.91874 0.13251,2.43001 -0.842498,4.68499 -2.55625,6.35751 -1.746247,1.70124 -4.228747,2.77001 -7.009999,2.77001 -2.7825,0 -5.269999,-1.06877 -7.016251,-2.77001 -1.712496,-1.67252 -2.686246,-3.9275 -2.553747,-6.35501"
           style="fill:#ffffff;fill-opacity:1;fill-rule:nonzero;stroke:none;stroke-width:0.99999994"
           id="path3026-5" /><path
           inkscape:connector-curvature="0"
           d="m -56.682644,294.85295 c 0.01625,0.92625 0.311244,2.72251 0.753751,4.12626 0.930002,2.97124 2.507501,5.71998 4.703751,8.14375 2.2525,2.48875 5.02625,4.49 8.23,5.90873 3.366248,1.49249 7.015,2.25127 10.804997,2.245 3.785,-0.004 7.432502,-0.77998 10.8,-2.2825 3.203751,-1.43248 5.975002,-3.4425 8.225001,-5.93374 2.1925,-2.43126 3.7687517,-5.18498 4.7000007,-8.15626 0.469999,-1.50248 0.764999,-3.02498 0.883752,-4.55497 0.117505,-1.50626 0.0675,-3.01376 -0.146268,-4.52126 -0.417483,-2.93877 -1.433734,-5.69375 -2.9974827,-8.20626 -1.432501,-2.30877 -3.2775,-4.33127 -5.471252,-6.03251 l 0.006,-0.002 -22.139953,-16.99998 c -0.0189,-0.0151 -0.03515,-0.0302 -0.05631,-0.0438 -1.453749,-1.11624 -3.89625,-1.11126 -5.4925,0.008 -1.61625,1.12872 -1.8,2.99747 -0.363741,4.17747 l -0.0049,0.004 9.232498,7.50875 -28.14375,0.0302 c -0.01361,0 -0.02646,0 -0.03742,0 -2.32625,10e-4 -4.562498,1.5275 -5.003751,3.45751 -0.456249,1.96502 1.123752,3.59502 3.542502,3.6025 l -0.002,0.008 14.263748,-0.0265 -25.455001,19.53876 c -0.03137,0.0265 -0.0675,0.0488 -0.09751,0.0737 -2.401248,1.83749 -3.176247,4.89623 -1.663748,6.82998 1.533751,1.96876 4.798749,1.9725 7.225001,0.0113 l 13.892486,-11.36878 c 0,0 -0.203754,1.53373 -0.187502,2.45499 z m 35.7,5.14126 c -2.863748,2.91624 -6.869998,4.56997 -11.207501,4.57874 -4.3425,0.008 -8.34875,-1.63249 -11.212498,-4.54375 -1.39875,-1.41875 -2.426249,-3.05 -3.06,-4.79002 -0.620001,-1.70748 -0.862499,-3.52123 -0.702501,-5.35124 0.152504,-1.78999 0.683751,-3.49501 1.535003,-5.04 0.834999,-1.51624 1.983749,-2.88873 3.404999,-4.04875 2.781248,-2.26749 6.32375,-3.49375 10.029997,-3.49874 3.708752,-0.008 7.248752,1.21126 10.032503,3.46998 1.4175,1.15503 2.567497,2.52125 3.4025,4.03752 0.85375,1.5425 1.382499,3.24125 1.539999,5.03626 0.156246,1.82748 -0.085,3.63874 -0.704999,5.34875 -0.635002,1.74372 -1.658751,3.375 -3.057502,4.80125"
           style="fill:#ffffff;fill-opacity:1;fill-rule:nonzero;stroke:none;stroke-width:0.99999994"
           id="path3028-6" /></g></g><g
       id="g6"
       style="fill:#ffffff;fill-opacity:1;stroke:none"
       transform="rotate(-45,315.47375,351.41125)"><g
         id="g4"
         style="fill:#ffffff;fill-opacity:1;stroke:none"
         transform="rotate(-90,190.98181,321.19714)"><path
           d="m 330.967,284.104 c 6.48,-6.467 6.48,-16.951 0,-23.422 -6.48,-6.467 -17.342,-6.467 -23.823,0 L 272,295.432 V 176.58 c 0,-9.151 -6.839,-16.56 -15.999,-16.56 -9.162,0 -16.001,7.408 -16.001,16.56 v 118.852 l -35.005,-34.75 c -6.481,-6.467 -17.095,-6.467 -23.573,0 -6.482,6.471 -6.539,16.955 -0.057,23.422 l 63.07,63.023 c 0.02,0.02 0.028,0.037 0.05,0.057 0.725,0.716 1.513,1.367 2.368,1.945 0.102,0.067 0.2,0.134 0.302,0.2 0.322,0.206 0.651,0.403 0.99,0.587 0.117,0.064 0.231,0.133 0.35,0.193 0.421,0.218 0.849,0.423 1.292,0.605 0.002,10e-4 0.004,10e-4 0.006,0.002 0.405,0.167 0.817,0.308 1.233,0.442 0.112,0.037 0.222,0.085 0.335,0.118 0.151,0.047 0.307,0.074 0.461,0.115 1.424,0.385 2.872,0.588 4.315,0.588 1.442,0 2.89,-0.203 4.312,-0.588 0.153,-0.041 0.312,-0.068 0.464,-0.115 0.113,-0.033 0.224,-0.081 0.335,-0.118 0.416,-0.135 0.829,-0.275 1.233,-0.442 0.002,-0.001 0.004,-0.001 0.007,-0.002 0.441,-0.183 0.87,-0.387 1.289,-0.604 0.122,-0.064 0.24,-0.133 0.36,-0.198 0.332,-0.185 0.658,-0.376 0.975,-0.579 0.109,-0.069 0.217,-0.14 0.323,-0.212 0.408,-0.274 0.806,-0.562 1.184,-0.872 0.004,-0.002 0.007,-0.004 0.011,-0.006 0.406,-0.332 0.791,-0.684 1.162,-1.051 0.024,-0.022 0.051,-0.043 0.074,-0.066 z"
           id="path2"
           style="fill:#ffffff;fill-opacity:1;stroke:none"
           inkscape:connector-curvature="0" /></g></g></g></svg>