<?xml version="1.0" encoding="UTF-8" standalone="no"?>
<svg
   xmlns:dc="http://purl.org/dc/elements/1.1/"
   xmlns:cc="http://creativecommons.org/ns#"
   xmlns:rdf="http://www.w3.org/1999/02/22-rdf-syntax-ns#"
   xmlns:svg="http://www.w3.org/2000/svg"
   xmlns="http://www.w3.org/2000/svg"
   xmlns:sodipodi="http://sodipodi.sourceforge.net/DTD/sodipodi-0.dtd"
   xmlns:inkscape="http://www.inkscape.org/namespaces/inkscape"
   height="32px"
   version="1.1"
   viewBox="0 0 32 32"
   width="32px"
   id="svg11"
   sodipodi:docname="icon_new_slide_photo.svg"
   inkscape:version="0.92.3 (unknown)">
  <metadata
     id="metadata15">
    <rdf:RDF>
      <cc:Work
         rdf:about="">
        <dc:format>image/svg+xml</dc:format>
        <dc:type
           rdf:resource="http://purl.org/dc/dcmitype/StillImage" />
        <dc:title></dc:title>
      </cc:Work>
    </rdf:RDF>
  </metadata>
  <sodipodi:namedview
     pagecolor="#ffffff"
     bordercolor="#666666"
     borderopacity="1"
     objecttolerance="10"
     gridtolerance="10"
     guidetolerance="10"
     inkscape:pageopacity="0"
     inkscape:pageshadow="2"
     inkscape:window-width="1920"
     inkscape:window-height="1025"
     id="namedview13"
     showgrid="false"
     inkscape:zoom="20.85965"
     inkscape:cx="2.4536153"
     inkscape:cy="16.791379"
     inkscape:window-x="0"
     inkscape:window-y="27"
     inkscape:window-maximized="1"
     inkscape:current-layer="icon-81-document-add"
     showguides="true"
     inkscape:guide-bbox="true" />
  <desc
     id="desc4" />
  <defs
     id="defs6" />
  <g
     fill="none"
     fill-rule="evenodd"
     id="Page-1"
     stroke="none"
     stroke-width="1">
    <g
       fill="#157EFB"
       id="icon-81-document-add"
       style="fill:#000000;fill-opacity:1">
      <path
         style="fill:#ffffff;fill-opacity:1"
         d="M 7.0078125 2 C 5.8985319 2 5 2.8988209 5 4.0078125 L 5 26.992188 C 5 28.100805 5.8915504 29 6.9980469 29 L 16.021484 29 C 15.374663 27.9897 15 26.788642 15 25.5 C 15 21.910149 17.910149 19 21.5 19 C 22.385901 19 23.230408 19.177112 24 19.498047 L 24 10 L 19.005859 10 C 17.898021 10 17 9.1133481 17 8.0019531 L 17 2 L 7.0078125 2 z M 18 2 L 18 7.9980469 C 18 8.5519494 18.450432 9 18.990234 9 L 24 9 L 18 2 z M 13.644531 10.416016 C 13.886038 10.397596 14.092815 10.559742 14.113281 10.791016 L 14.210938 11.892578 L 15.900391 11.974609 C 16.168505 11.986889 16.369702 12.195338 16.357422 12.451172 L 16.074219 17.839844 C 16.059892 18.097724 15.836567 18.285718 15.566406 18.273438 L 8.8085938 17.953125 C 8.5384331 17.938798 8.3373293 17.728584 8.3496094 17.470703 L 8.3984375 16.533203 L 8.0917969 16.558594 C 7.8523364 16.577014 7.6435136 16.414868 7.6230469 16.183594 L 7.1894531 11.357422 C 7.1710331 11.128195 7.3444303 10.93453 7.5859375 10.914062 L 13.644531 10.416016 z M 13.341797 11.052734 L 8 11.490234 C 7.8935731 11.498421 7.8149209 11.58126 7.8046875 11.683594 L 7.8046875 11.693359 L 7.8046875 11.703125 L 8.1328125 15.347656 L 8.4882812 14.841797 L 8.6347656 12.082031 C 8.6470457 11.826197 8.8704644 11.638298 9.140625 11.646484 L 13.623047 11.861328 L 13.568359 11.230469 C 13.568359 11.226375 13.5625 11.224703 13.5625 11.222656 C 13.5625 11.218563 13.556641 11.218937 13.556641 11.214844 C 13.540267 11.114557 13.448224 11.044548 13.341797 11.052734 z M 9.5 12.349609 C 9.3833398 12.343469 9.2845128 12.424636 9.2558594 12.535156 L 9.2558594 12.544922 L 9.2558594 12.554688 L 9.1894531 13.841797 L 9.0488281 16.480469 L 9.0429688 16.619141 L 9.1816406 16.46875 L 11.251953 14.242188 C 11.325633 14.170553 11.438026 14.120813 11.554688 14.126953 C 11.669301 14.133093 11.774444 14.183852 11.837891 14.263672 L 12.712891 15.265625 C 12.737451 15.290185 12.768783 15.317611 12.785156 15.333984 C 12.83223 15.379011 12.897023 15.408016 12.970703 15.412109 C 13.04643 15.416203 13.102195 15.388683 13.173828 15.345703 L 13.509766 15.101562 C 13.583446 15.04835 13.648321 15.013485 13.736328 15.017578 C 13.824335 15.021671 13.904005 15.071506 13.953125 15.130859 L 14.515625 15.798828 L 15.472656 16.931641 L 15.685547 12.867188 C 15.685547 12.863093 15.677734 12.859562 15.677734 12.855469 C 15.677734 12.851375 15.671875 12.849796 15.671875 12.845703 C 15.669828 12.733136 15.577691 12.642859 15.458984 12.636719 L 14.265625 12.580078 L 13.679688 12.550781 L 9.5 12.349609 z M 14.171875 13.03125 C 14.570976 13.03125 14.892578 13.354899 14.892578 13.751953 C 14.892578 14.149007 14.568929 14.472656 14.171875 14.472656 C 13.772774 14.472656 13.451172 14.151054 13.451172 13.751953 C 13.451172 13.352852 13.774821 13.03125 14.171875 13.03125 z M 21.5 20 C 18.462434 20 16 22.462434 16 25.5 C 16 28.537566 18.462434 31 21.5 31 C 24.537566 31 27 28.537566 27 25.5 C 27 22.462434 24.537566 20 21.5 20 z M 21 22 L 22 22 L 22 25 L 25 25 L 25 26 L 22 26 L 22 29 L 21 29 L 21 26 L 18 26 L 18 25 L 21 25 L 21 22 z "
         id="document-add" />
    </g>
    <g
       id="g4708"
       transform="matrix(0.75822708,0,0,0.75822708,-23.965545,-31.942866)">
      <g
         style="fill:#cccccc"
         transform="matrix(0.02699285,0,0,0.02699285,40.224844,54.136047)"
         id="g3">
        <g
           style="fill:#cccccc"
           id="g5" />
      </g>
    </g>
  </g>
</svg>
