<?xml version="1.0" encoding="UTF-8" standalone="no"?>
<!-- Generator: Adobe Illustrator 16.2.1, SVG Export Plug-In . SVG Version: 6.00 Build 0)  -->

<svg
   xmlns:dc="http://purl.org/dc/elements/1.1/"
   xmlns:cc="http://creativecommons.org/ns#"
   xmlns:rdf="http://www.w3.org/1999/02/22-rdf-syntax-ns#"
   xmlns:svg="http://www.w3.org/2000/svg"
   xmlns="http://www.w3.org/2000/svg"
   xmlns:sodipodi="http://sodipodi.sourceforge.net/DTD/sodipodi-0.dtd"
   xmlns:inkscape="http://www.inkscape.org/namespaces/inkscape"
   version="1.1"
   id="Layer_1"
   x="0px"
   y="0px"
   width="151.96388"
   height="136.14847"
   viewBox="0 0 151.96388 136.14847"
   xml:space="preserve"
   inkscape:version="0.91 r13725"
   sodipodi:docname="icon_images.svg"><metadata
     id="metadata15"><rdf:RDF><cc:Work
         rdf:about=""><dc:format>image/svg+xml</dc:format><dc:type
           rdf:resource="http://purl.org/dc/dcmitype/StillImage" /><dc:title></dc:title></cc:Work></rdf:RDF></metadata><defs
     id="defs13" /><sodipodi:namedview
     pagecolor="#ffffff"
     bordercolor="#666666"
     borderopacity="1"
     objecttolerance="10"
     gridtolerance="10"
     guidetolerance="10"
     inkscape:pageopacity="0"
     inkscape:pageshadow="2"
     inkscape:window-width="2560"
     inkscape:window-height="1025"
     id="namedview11"
     showgrid="false"
     inkscape:zoom="1.9125654"
     inkscape:cx="341.27611"
     inkscape:cy="-5.0824009"
     inkscape:window-x="2560"
     inkscape:window-y="27"
     inkscape:window-maximized="1"
     inkscape:current-layer="Layer_1"
     fit-margin-top="0"
     fit-margin-left="0"
     fit-margin-right="0"
     fit-margin-bottom="0" /><g
     id="g3"
     transform="matrix(0.29813322,0,0,0.29813322,1.5999595,-19.089538)"
     style="fill:#cccccc"><g
       id="g5"
       style="fill:#cccccc"><path
         d="m 457.6,140.2 -82.5,-4 -4.8,-53.8 C 369.3,71.1 359.2,63.2 347.4,64.1 L 51.4,88.4 C 39.6,89.4 31.1,98.9 32,110.1 l 21.2,235.8 c 1,11.3 11.2,19.2 22.9,18.3 l 15,-1.2 -2.4,45.8 c -0.6,12.6 9.2,22.8 22.4,23.5 L 441.3,448 c 13.2,0.6 24.1,-8.6 24.8,-21.2 L 480,163.5 c 0.6,-12.5 -9.3,-22.7 -22.4,-23.3 z m -355,5.3 -7.1,134.8 -17.4,24.7 -16,-178 c 0,-0.2 0,-0.3 0,-0.5 0,-0.2 0,-0.3 0,-0.5 0.5,-5 4.3,-9 9.5,-9.4 l 261,-21.4 c 5.2,-0.4 9.7,3 10.5,7.9 0,0.2 0.3,0.2 0.3,0.4 0,0.1 0.3,0.2 0.3,0.4 l 2.7,30.8 -219,-10.5 c -13.2,-0.4 -24.2,8.8 -24.8,21.3 z M 436.7,382.4 390,327.1 362.5,294.4 c -2.4,-2.9 -6.3,-5.3 -10.6,-5.5 -4.3,-0.2 -7.5,1.5 -11.1,4.1 l -16.4,11.9 c -3.5,2.1 -6.2,3.5 -9.9,3.3 -3.6,-0.2 -6.8,-1.6 -9.1,-3.8 -0.8,-0.8 -2.3,-2.2 -3.5,-3.4 l -42.8,-48.9 c -3.1,-3.9 -8.2,-6.4 -13.8,-6.7 -5.7,-0.3 -11.2,2.1 -14.8,5.6 l -101.1,108.8 -6.8,7.4 0.3,-6.8 6.8,-128.9 3.3,-62.9 c 0,-0.2 0,-0.4 0,-0.5 0,-0.2 0,-0.4 0,-0.5 1.4,-5.4 6.2,-9.3 11.9,-9 l 204.2,9.8 28.7,1.4 58.3,2.8 c 5.8,0.3 10.3,4.7 10.4,10.2 0,0.2 0.3,0.3 0.3,0.5 0,0.2 0.3,0.3 0.3,0.5 l -10.4,198.6 z"
         id="path7"
         inkscape:connector-curvature="0"
         style="fill:#cccccc" /></g><path
       d="m 373.2,262.3 c 19.4,0 35.2,-15.8 35.2,-35.2 0,-19.4 -15.7,-35.2 -35.2,-35.2 -19.4,0 -35.2,15.7 -35.2,35.2 0,19.5 15.7,35.2 35.2,35.2 z"
       id="path9"
       inkscape:connector-curvature="0"
       style="fill:#cccccc" /></g><g
     transform="matrix(0.83051361,0,0,0.83051361,-4.6305948,23.435387)"
     style="font-style:normal;font-variant:normal;font-weight:normal;font-stretch:normal;font-size:15.03633785px;line-height:125%;font-family:Purisa;-inkscape-font-specification:Purisa;letter-spacing:0px;word-spacing:0px;fill:#cccccc;fill-opacity:1;stroke:none;stroke-width:1px;stroke-linecap:butt;stroke-linejoin:miter;stroke-opacity:1"
     id="flowRoot8068"><path
       d="m 10.928516,131.7002 q 0,0.13533 -0.225545,0.36088 -0.225545,0.22554 -0.390945,0.22554 -0.135327,0 -0.240581,-0.19547 -0.090218,-0.19547 -1.0375077,-0.85707 -1.1878707,-0.827 -2.3306323,-2.21035 -1.1277254,-1.38334 -1.1277254,-1.98479 0,-0.37591 1.4434885,-1.69911 l 2.3456687,-2.12012 q 1.0375072,-0.94729 1.3833432,-0.94729 0.180436,0 0.255618,0.15036 0.07518,0.13533 0.07518,0.25562 0,0.18044 -0.165399,0.36087 -0.1654,0.18044 -0.676636,0.63153 -0.5112351,0.45109 -0.9172162,0.85707 l -1.6239245,1.51867 q -0.3458358,0.3308 -0.6014536,0.6616 -0.2556177,0.3308 -0.2556177,0.45109 0,0.30073 1.1277253,1.60889 1.1427617,1.30816 1.7742879,1.72918 0.4510898,0.31576 0.8119618,0.67663 0.375909,0.36087 0.375909,0.52627 z"
       style=""
       id="path8077" /><path
       d="m 22.294812,132.13626 q 0,0.3308 -0.135327,0.51123 -0.12029,0.19547 -0.225545,0.22555 -0.09022,0.0451 -0.165399,0.0451 -0.195473,0 -0.3308,-0.13533 -0.135327,-0.12029 -0.210509,-0.45109 -0.07518,-0.31576 -0.105254,-0.48116 -0.01504,-0.1654 -0.06014,-0.61649 -0.105255,-1.51867 -0.240582,-1.51867 -0.165399,0 -0.526271,0.43605 -1.68407,1.9848 -3.548576,1.9848 -0.556345,0 -1.112689,-0.21051 -1.924651,-0.72175 -1.924651,-2.94712 0,-0.96233 0.315763,-1.83444 0.330799,-0.88714 0.826998,-1.48859 0.511236,-0.60146 1.022471,-1.00744 0.511236,-0.40598 0.977362,-0.57138 0.586417,-0.22555 0.811962,-0.22555 0.390945,0 1.308162,0.51124 0.932253,0.51124 1.293125,0.9924 0.405981,0.54131 0.61649,0.54131 0.01504,0 0.01504,0 0,-0.015 0.01504,-0.015 0.1654,-0.10525 0.1654,-3.92448 0,-3.77412 0.180436,-4.28536 0.195473,-0.46613 0.586417,-0.46613 l 0.405981,0 -0.12029,6.17994 q -0.04511,2.30056 -0.04511,4.10492 0,2.45092 0.105254,3.50347 0.105254,1.05254 0.105254,1.14276 z m -3.518503,-6.6611 q -0.887144,-0.58642 -1.232979,-0.58642 -0.300727,0 -1.353271,1.02247 -1.052543,1.02247 -1.248016,1.50364 -0.150363,0.36087 -0.150363,1.30816 0,1.1578 0.195472,1.50363 0.150364,0.27066 0.721744,0.58642 0.586418,0.31576 1.157798,0.31576 1.022471,0 2.586251,-1.50363 1.232979,-1.18787 1.232979,-1.54874 0,-0.4962 -0.631526,-1.3232 -0.61649,-0.827 -1.278089,-1.27809 z"
       style=""
       id="path8079" /><path
       d="m 29.630195,124.67823 q 0.255618,0 0.45109,0.1654 0.195473,0.15037 0.195473,0.25562 0,0.18044 -0.571381,0.40598 -0.932253,0.37591 -1.909615,1.8194 -0.962326,1.42845 -1.172834,2.76668 -0.240582,1.51868 -0.390945,1.9848 -0.150363,0.48116 -0.390945,0.48116 -0.210509,0 -0.330799,-0.15036 -0.105255,-0.15036 -0.150364,-0.3308 -0.03007,-0.18043 -0.07518,-0.6616 -0.01504,-0.0902 -0.01504,-0.13532 -0.360872,-3.78916 -0.360872,-5.98447 0,-0.78189 0.06015,-0.96232 0.165399,-0.48117 0.421017,-0.48117 0.240581,0 0.240581,0.40599 0,0.67663 0.210509,2.18026 0.210509,1.50364 0.315763,1.50364 0.135327,0 0.556345,-0.827 0.526272,-0.97736 1.398379,-1.69911 0.887144,-0.73678 1.51867,-0.73678 z"
       style=""
       id="path8081" /><path
       d="m 36.748258,124.4978 q -0.691672,0 -1.473562,0.28569 -0.766853,0.28569 -1.368306,0.58641 -0.601454,0.2857 -0.872108,0.2857 -0.180436,0 -0.180436,-0.15037 0,-0.21051 0.09022,-0.36087 0.09022,-0.15036 0.3308,-0.28569 0.240581,-0.13533 0.45109,-0.22555 0.225545,-0.0902 0.706708,-0.25561 0.481162,-0.18044 0.826998,-0.3308 0.811962,-0.31577 1.368307,-0.31577 0.992398,0 1.548743,1.08262 0.270654,0.52627 0.315763,0.97736 0.04511,0.43606 0.07518,2.481 0.01504,1.14276 0.04511,1.92465 0.03007,0.76685 0.06015,0.97736 l 0.03007,0.19547 q 0,0.21051 -0.195473,0.45109 -0.180436,0.24059 -0.270654,0.24059 -0.300727,0 -0.466126,-0.94729 -0.1654,-0.96233 -0.180436,-0.96233 -0.04511,0 -0.135328,0.1654 -0.300726,0.4962 -1.217943,1.09765 -0.90218,0.58642 -1.51867,0.58642 -0.375908,0 -0.887144,-0.13533 -0.496199,-0.15036 -0.721744,-0.31576 -0.1654,-0.13533 -0.285691,-0.54131 -0.105254,-0.40598 -0.105254,-0.827 0,-0.63152 0.330799,-1.08261 0.345836,-0.46613 1.217944,-0.94729 0.947289,-0.55635 1.834433,-0.55635 0.360872,0 0.601454,0.12029 0.240581,0.12029 0.360872,0.25562 0.12029,0.12029 0.195472,0.12029 0.07518,0 0.285691,0.1654 0.225545,0.15037 0.240581,0.15037 0.06015,0 0.06015,-0.3308 0,-2.01487 -0.28569,-2.79676 -0.270654,-0.78189 -0.811962,-0.78189 z m 0.676635,4.66126 q 0,-0.0601 -0.04511,-0.13533 -0.03007,-0.0902 -0.150364,-0.19547 -0.105254,-0.12029 -0.28569,-0.21051 -0.1654,-0.10525 -0.466126,-0.1654 -0.300727,-0.0752 -0.676636,-0.0752 -0.646562,0 -1.142761,0.22555 -0.481163,0.22554 -0.721745,0.57138 -0.240581,0.34583 -0.360872,0.64656 -0.105254,0.28569 -0.105254,0.51124 0,0.3759 0.06014,0.51123 0.07518,0.13533 0.345836,0.28569 0.3308,0.1654 0.601454,0.1654 0.511235,0 1.263052,-0.36087 0.766853,-0.37591 0.766853,-0.54131 0,-0.12029 0.45109,-0.57138 0.466127,-0.46613 0.466127,-0.6616 z"
       style=""
       id="path8083" /><path
       d="m 47.373547,134.82776 q 0.736781,0 0.736781,-0.64656 0,-1.09765 -0.09022,-1.93969 -0.07518,-0.827 -0.195473,-1.39838 -0.105254,-0.57138 -0.120291,-0.827 -0.105254,-1.5337 -0.210508,-1.5337 -0.06015,0 -0.225545,0.27065 -0.375909,0.55635 -1.217944,1.24802 -0.842035,0.69167 -1.398379,0.90218 -0.631526,0.25561 -1.428452,0.25561 -0.481163,0 -0.766853,-0.12029 -0.270655,-0.12029 -0.721745,-0.51123 -0.436053,-0.39095 -0.61649,-0.69167 -0.180436,-0.30073 -0.28569,-0.85707 -0.105254,-0.55635 -0.105254,-0.94729 0,-0.28569 0.04511,-0.42102 0.105254,-0.40598 0.556344,-1.26305 0.45109,-0.85707 0.826999,-1.33824 0.315763,-0.42101 1.172834,-0.97736 0.872108,-0.57138 1.533707,-0.78189 0.691671,-0.22554 1.578815,-0.22554 1.112689,0 1.84947,0.39094 0.73678,0.37591 0.73678,1.17284 0,0.45109 -0.225545,1.11268 -0.210509,0.6616 -0.210509,1.1578 0,0.25562 0.345836,4.97703 l 0.225545,3.11252 -0.526272,0.42102 q -0.421017,0.34584 -0.857071,0.34584 -0.796926,0 -1.939687,-0.40599 -1.142762,-0.39094 -1.969761,-0.91721 -0.826998,-0.51124 -0.826998,-0.84204 0,-0.39094 0.405981,-0.96232 0.421017,-0.57138 0.706708,-0.57138 0.330799,0 0.330799,0.22554 0,0.13533 -0.135327,0.40598 -0.135327,0.27066 -0.135327,0.52627 0,0.42102 0.556345,0.73678 0.556344,0.31577 0.947289,0.31577 0.225545,0 0.73678,0.30072 0.526272,0.30073 0.917217,0.30073 z m -5.713808,-6.8265 q 0,0.87211 0.45109,1.59386 0.45109,0.72174 1.127725,0.72174 0.917217,0 1.96976,-0.827 1.06758,-0.84203 1.729179,-2.09005 0.360872,-0.70671 0.61649,-1.60889 0.270654,-0.91721 0.270654,-1.44349 0,-0.30072 -0.105254,-0.36087 -0.3308,-0.18043 -1.097653,-0.18043 -0.691671,0 -1.187871,0.15036 -1.308161,0.37591 -2.541141,1.75925 -1.232979,1.38334 -1.232979,2.28552 z"
       style=""
       id="path8085" /><path
       d="m 63.095683,132.66253 q -0.421018,0 -0.902181,-0.40598 -0.481162,-0.39095 -0.481162,-1.24802 0,-0.91722 0.631526,-2.1953 l 0.661599,-1.36831 -0.270654,-0.827 q -0.405982,-1.17283 -0.405982,-1.83443 0,-0.52627 0.255618,-0.88715 0.255618,-0.3759 0.826999,-0.72174 0.691671,-0.40598 1.007434,-0.40598 l 0.180436,0.0451 q 0.180437,0.0301 0.315764,0.0301 0.165399,0 0.345835,0.45109 0.195473,0.43605 0.195473,0.76685 0,0.43606 -0.601454,1.72918 -0.601453,1.29313 -0.601453,1.51867 0,0.30073 0.751817,0.9924 0.751816,0.69167 1.097652,0.69167 0.240582,0 0.541308,-0.36087 0.300727,-0.36087 0.541309,-0.78189 0.255617,-0.43605 0.57138,-0.79693 0.3308,-0.36087 0.61649,-0.36087 0.1654,0 0.3308,0.15037 0.165399,0.15036 0.165399,0.28569 0,0.22554 -0.826998,1.27809 -0.811962,1.05254 -0.811962,1.26305 0,0.0902 0.135327,0.0902 0.135327,0 0.45109,0.24058 0.315763,0.24058 0.601453,0.24058 0.421018,0 0.872108,0.28569 0.466126,0.28569 0.466126,0.54131 0,0.40598 -0.526271,0.40598 -0.842035,0 -1.984797,-0.84204 l -0.571381,-0.40598 -0.857071,0.75182 q -0.526272,0.46613 -1.443489,1.06758 -0.917216,0.61649 -1.278088,0.61649 z m 0.375908,-7.59335 q 0,0.97736 0.180436,0.97736 0.1654,0 0.466127,-0.3308 0.375908,-0.42102 0.375908,-1.21794 0,-0.79693 -0.180436,-0.79693 -0.120291,0 -0.45109,0.24058 -0.240582,0.15037 -0.315763,0.37591 -0.07518,0.21051 -0.07518,0.75182 z m -0.842035,5.84913 q 0,0.30073 0.105255,0.4962 0.105254,0.19548 0.28569,0.19548 0.225545,0 1.187871,-0.58642 0.977362,-0.58642 1.232979,-0.63153 0.3308,-0.0601 0.3308,-0.22554 0,-0.1654 -0.315763,-0.39095 -0.315763,-0.22554 -0.796926,-0.54131 -0.466127,-0.31576 -0.691672,-0.58641 l -0.315763,-0.39095 -0.511235,0.9924 q -0.511236,0.97736 -0.511236,1.66903 z"
       style=""
       id="path8087" /><path
       d="m 90.369486,132.13626 q 0,0.3308 -0.135327,0.51123 -0.120291,0.19547 -0.225545,0.22555 -0.09022,0.0451 -0.1654,0.0451 -0.195472,0 -0.330799,-0.13533 -0.135327,-0.12029 -0.210509,-0.45109 -0.07518,-0.31576 -0.105254,-0.48116 -0.01504,-0.1654 -0.06015,-0.61649 -0.105254,-1.51867 -0.240581,-1.51867 -0.1654,0 -0.526272,0.43605 -1.68407,1.9848 -3.548576,1.9848 -0.556344,0 -1.112689,-0.21051 -1.924651,-0.72175 -1.924651,-2.94712 0,-0.96233 0.315763,-1.83444 0.3308,-0.88714 0.826999,-1.48859 0.511235,-0.60146 1.022471,-1.00744 0.511235,-0.40598 0.977362,-0.57138 0.586417,-0.22555 0.811962,-0.22555 0.390945,0 1.308161,0.51124 0.932253,0.51124 1.293125,0.9924 0.405982,0.54131 0.61649,0.54131 0.01504,0 0.01504,0 0,-0.015 0.01504,-0.015 0.1654,-0.10525 0.1654,-3.92448 0,-3.77412 0.180436,-4.28536 0.195472,-0.46613 0.586417,-0.46613 l 0.405981,0 -0.120291,6.17994 q -0.04511,2.30056 -0.04511,4.10492 0,2.45092 0.105255,3.50347 0.105254,1.05254 0.105254,1.14276 z m -3.518503,-6.6611 q -0.887144,-0.58642 -1.23298,-0.58642 -0.300726,0 -1.35327,1.02247 -1.052544,1.02247 -1.248016,1.50364 -0.150363,0.36087 -0.150363,1.30816 0,1.1578 0.195472,1.50363 0.150363,0.27066 0.721744,0.58642 0.586417,0.31576 1.157798,0.31576 1.022471,0 2.58625,-1.50363 1.23298,-1.18787 1.23298,-1.54874 0,-0.4962 -0.631526,-1.3232 -0.61649,-0.827 -1.278089,-1.27809 z"
       style=""
       id="path8089" /><path
       d="m 97.704864,124.67823 q 0.255618,0 0.45109,0.1654 0.195473,0.15037 0.195473,0.25562 0,0.18044 -0.571381,0.40598 -0.932253,0.37591 -1.909615,1.8194 -0.962326,1.42845 -1.172834,2.76668 -0.240582,1.51868 -0.390945,1.9848 -0.150364,0.48116 -0.390945,0.48116 -0.210509,0 -0.330799,-0.15036 -0.105255,-0.15036 -0.150364,-0.3308 -0.03007,-0.18043 -0.07518,-0.6616 -0.01504,-0.0902 -0.01504,-0.13532 -0.360872,-3.78916 -0.360872,-5.98447 0,-0.78189 0.06015,-0.96232 0.1654,-0.48117 0.421018,-0.48117 0.240581,0 0.240581,0.40599 0,0.67663 0.210509,2.18026 0.210509,1.50364 0.315763,1.50364 0.135327,0 0.556345,-0.827 0.526271,-0.97736 1.398379,-1.69911 0.887144,-0.73678 1.51867,-0.73678 z"
       style=""
       id="path8091" /><path
       d="m 101.68034,125.23458 q 1.17283,-1.09765 1.96976,-1.44349 0.81196,-0.36087 2.04494,-0.36087 1.8645,0 2.33063,1.11269 0.28569,0.6616 0.28569,1.62392 0,1.59385 -0.70671,3.23281 -0.70671,1.62393 -1.74421,2.25545 -1.00744,0.61649 -2.12013,0.61649 -1.54874,0 -2.48099,-1.06758 -0.64656,-0.75181 -0.84204,-1.26305 -0.19547,-0.52627 -0.19547,-1.4886 0,-1.81939 1.45853,-3.21777 z m 2.42085,6.17993 q 1.26305,0 2.28552,-1.72918 1.03751,-1.74421 1.03751,-3.93952 0,-0.3308 -0.0752,-0.4962 -0.0752,-0.1654 -0.27066,-0.3308 -0.55634,-0.46612 -1.18787,-0.46612 -0.10525,0 -0.24058,0.0301 -0.12029,0.015 -0.40598,0.0602 -0.28569,0.0301 -0.67664,0.0752 -0.52627,0.0752 -0.84203,0.24058 -0.30073,0.15036 -0.76686,0.58642 -0.88714,0.84203 -1.26305,1.56378 -0.37591,0.7067 -0.37591,1.54874 0,1.24801 0.76686,2.04494 0.78189,0.79693 2.01487,0.81196 z"
       style=""
       id="path8093" /><path
       d="m 110.48247,124.93385 q 0.42102,-0.37591 0.42102,-0.64656 0,-0.27066 0.1654,-0.64656 0.18043,-0.39095 0.51123,-0.39095 0.21051,0 0.36087,0.24058 0.1654,0.22555 0.34584,0.22555 0.13533,0 1.11269,-0.22555 0.97736,-0.24058 1.71414,-0.24058 0.61649,0 1.36831,0.1654 1.56378,0.36087 1.56378,1.93969 0,1.20291 -0.93226,3.20274 -0.61649,1.3232 -1.50363,2.04494 -0.88714,0.70671 -1.89458,0.70671 -0.28569,0 -0.43605,-0.0301 l -0.69167,-0.10526 0.1654,0.81196 q 0.5413,2.55618 0.5413,3.20274 0,0.30073 -0.10525,0.39095 -0.10525,0.10525 -0.36087,0.10525 -0.27066,0 -0.39095,-0.13532 -0.10525,-0.1203 -0.22554,-0.52628 -0.58642,-2.10508 -0.94729,-6.28519 -0.1654,-2.05997 -0.28569,-2.51106 -0.10526,-0.46613 -0.43606,-0.46613 -0.48116,0 -0.48116,-0.28569 0,-0.1654 0.42102,-0.54131 z m 2.24041,4.99207 q 0.22555,0 0.52628,0.19547 0.30072,0.18043 0.51123,0.18043 0.60145,0 1.38334,-0.76685 0.78189,-0.78189 1.3232,-1.87954 0.55635,-1.09765 0.55635,-1.95473 0,-0.46612 -0.21051,-0.84203 -0.19548,-0.37591 -0.34584,-0.42102 -0.25562,-0.10525 -0.88714,-0.10525 -1.39838,0 -2.481,0.34583 l -1.00743,0.3308 0.0301,0.96233 q 0.0301,0.96232 0.1654,2.45092 0.0752,0.88715 0.1654,1.18787 0.0902,0.30073 0.27065,0.31577 z"
       style=""
       id="path8095" /><path
       d="m 130.4324,123.41518 q 0.21051,-0.18044 0.36087,-0.18044 0.31576,0 0.45109,1.00744 0.15036,0.9924 0.27065,3.83427 0.0602,1.32319 0.0602,2.39077 0,1.06758 -0.0902,1.17284 -0.18044,0.22554 -0.45109,0.22554 -0.37591,0 -0.46613,-0.31576 -0.0752,-0.19547 -0.22554,-3.03734 -0.15036,-2.8569 -0.15036,-3.96959 0,-0.93226 0.24058,-1.12773 z m -0.0902,-3.53354 q 0,-0.21051 0.1654,-0.42102 0.18043,-0.2105 0.31576,-0.2105 0.15036,0 0.40598,0.2105 0.27066,0.19548 0.27066,0.51124 0,0.22554 -0.13533,0.39094 -0.12029,0.15037 -0.3308,0.15037 -0.24058,0 -0.46613,-0.18044 -0.22554,-0.18043 -0.22554,-0.45109 z"
       style=""
       id="path8097" /><path
       d="m 135.05372,124.42262 q 0,-0.87211 0.24058,-0.87211 0.19548,0 0.42102,1.3683 0.24058,1.36831 0.3308,1.36831 0.0301,0 0.10525,-0.18043 0.0752,-0.19548 0.1654,-0.42102 0.0902,-0.24058 0.15037,-0.30073 0.15036,-0.19547 0.40598,-0.73678 0.31576,-0.64656 0.48116,-0.78189 0.1654,-0.15036 0.58642,-0.15036 0.46612,0 1.02247,0.64656 0.36087,0.42102 0.48116,0.78189 0.13533,0.34584 0.28569,1.26305 l 0.24058,1.41342 0.25562,-0.90218 q 0.37591,-1.30816 1.08262,-2.25545 0.70671,-0.94729 1.30816,-0.94729 0.37591,0 0.69167,0.43605 0.31576,0.42102 0.45109,1.08262 0.13533,0.61649 0.13533,2.72157 0,1.57882 -0.015,2.43589 -0.015,0.85707 -0.0752,1.24802 -0.0451,0.37591 -0.0902,0.43605 -0.0451,0.0752 -0.1654,0.0902 -0.0451,0.015 -0.10525,0.015 -0.13533,0 -0.1654,-0.42102 -0.0301,-0.42102 -0.0451,-2.36071 0,-4.73644 -0.72175,-4.73644 -0.39094,0 -1.02247,1.29312 -0.52627,1.06758 -0.88714,2.60129 -0.36087,1.5337 -0.43605,3.09748 -0.015,0.37591 -0.0902,0.51124 -0.0601,0.13533 -0.21051,0.13533 -0.18044,0 -0.24058,-0.31577 -0.0451,-0.30072 -0.10526,-1.62392 -0.10525,-2.43589 -0.30072,-3.41325 -0.19548,-0.9924 -0.72175,-1.78932 -0.39094,-0.55635 -0.57138,-0.55635 -0.21051,0 -0.46612,0.52627 -0.25562,0.51124 -0.84204,1.96976 -0.27065,0.70671 -0.27065,1.29313 0,0.34583 -0.13533,0.76685 -0.12029,0.40598 -0.1654,2.02991 -0.0301,1.51867 -0.12029,1.72918 -0.0601,0.18043 -0.24058,0.18043 -0.24058,0 -0.3308,-0.72174 -0.0752,-0.72175 -0.0752,-2.88698 0,-1.74421 -0.12029,-3.20274 -0.10526,-1.45852 -0.10526,-1.8645 z"
       style=""
       id="path8099" /><path
       d="m 151.01855,124.4978 q -0.69167,0 -1.47356,0.28569 -0.76686,0.28569 -1.36831,0.58641 -0.60145,0.2857 -0.87211,0.2857 -0.18043,0 -0.18043,-0.15037 0,-0.21051 0.0902,-0.36087 0.0902,-0.15036 0.3308,-0.28569 0.24059,-0.13533 0.45109,-0.22555 0.22555,-0.0902 0.70671,-0.25561 0.48116,-0.18044 0.827,-0.3308 0.81196,-0.31577 1.36831,-0.31577 0.9924,0 1.54874,1.08262 0.27065,0.52627 0.31576,0.97736 0.0451,0.43606 0.0752,2.481 0.015,1.14276 0.0451,1.92465 0.0301,0.76685 0.0601,0.97736 l 0.0301,0.19547 q 0,0.21051 -0.19547,0.45109 -0.18044,0.24059 -0.27065,0.24059 -0.30073,0 -0.46613,-0.94729 -0.1654,-0.96233 -0.18044,-0.96233 -0.0451,0 -0.13532,0.1654 -0.30073,0.4962 -1.21795,1.09765 -0.90218,0.58642 -1.51867,0.58642 -0.37591,0 -0.88714,-0.13533 -0.4962,-0.15036 -0.72175,-0.31576 -0.1654,-0.13533 -0.28569,-0.54131 -0.10525,-0.40598 -0.10525,-0.827 0,-0.63152 0.3308,-1.08261 0.34583,-0.46613 1.21794,-0.94729 0.94729,-0.55635 1.83444,-0.55635 0.36087,0 0.60145,0.12029 0.24058,0.12029 0.36087,0.25562 0.12029,0.12029 0.19547,0.12029 0.0752,0 0.28569,0.1654 0.22555,0.15037 0.24059,0.15037 0.0601,0 0.0601,-0.3308 0,-2.01487 -0.28569,-2.79676 -0.27065,-0.78189 -0.81196,-0.78189 z m 0.67663,4.66126 q 0,-0.0601 -0.0451,-0.13533 -0.0301,-0.0902 -0.15036,-0.19547 -0.10525,-0.12029 -0.28569,-0.21051 -0.1654,-0.10525 -0.46613,-0.1654 -0.30072,-0.0752 -0.67663,-0.0752 -0.64656,0 -1.14276,0.22555 -0.48117,0.22554 -0.72175,0.57138 -0.24058,0.34583 -0.36087,0.64656 -0.10525,0.28569 -0.10525,0.51124 0,0.3759 0.0601,0.51123 0.0752,0.13533 0.34584,0.28569 0.3308,0.1654 0.60145,0.1654 0.51124,0 1.26305,-0.36087 0.76686,-0.37591 0.76686,-0.54131 0,-0.12029 0.45109,-0.57138 0.46612,-0.46613 0.46612,-0.6616 z"
       style=""
       id="path8101" /><path
       d="m 161.64384,134.82776 q 0.73678,0 0.73678,-0.64656 0,-1.09765 -0.0902,-1.93969 -0.0752,-0.827 -0.19547,-1.39838 -0.10525,-0.57138 -0.12029,-0.827 -0.10525,-1.5337 -0.21051,-1.5337 -0.0601,0 -0.22554,0.27065 -0.37591,0.55635 -1.21795,1.24802 -0.84203,0.69167 -1.39838,0.90218 -0.63152,0.25561 -1.42845,0.25561 -0.48116,0 -0.76685,-0.12029 -0.27066,-0.12029 -0.72175,-0.51123 -0.43605,-0.39095 -0.61649,-0.69167 -0.18043,-0.30073 -0.28569,-0.85707 -0.10525,-0.55635 -0.10525,-0.94729 0,-0.28569 0.0451,-0.42102 0.10525,-0.40598 0.55634,-1.26305 0.45109,-0.85707 0.827,-1.33824 0.31577,-0.42101 1.17284,-0.97736 0.8721,-0.57138 1.5337,-0.78189 0.69167,-0.22554 1.57882,-0.22554 1.11269,0 1.84947,0.39094 0.73678,0.37591 0.73678,1.17284 0,0.45109 -0.22555,1.11268 -0.21051,0.6616 -0.21051,1.1578 0,0.25562 0.34584,4.97703 l 0.22555,3.11252 -0.52628,0.42102 q -0.42101,0.34584 -0.85707,0.34584 -0.79692,0 -1.93969,-0.40599 -1.14276,-0.39094 -1.96976,-0.91721 -0.82699,-0.51124 -0.82699,-0.84204 0,-0.39094 0.40598,-0.96232 0.42101,-0.57138 0.7067,-0.57138 0.3308,0 0.3308,0.22554 0,0.13533 -0.13532,0.40598 -0.13533,0.27066 -0.13533,0.52627 0,0.42102 0.55634,0.73678 0.55635,0.31577 0.94729,0.31577 0.22555,0 0.73678,0.30072 0.52628,0.30073 0.91722,0.30073 z m -5.71381,-6.8265 q 0,0.87211 0.45109,1.59386 0.45109,0.72174 1.12773,0.72174 0.91721,0 1.96976,-0.827 1.06758,-0.84203 1.72918,-2.09005 0.36087,-0.70671 0.61649,-1.60889 0.27065,-0.91721 0.27065,-1.44349 0,-0.30072 -0.10525,-0.36087 -0.3308,-0.18043 -1.09766,-0.18043 -0.69167,0 -1.18787,0.15036 -1.30816,0.37591 -2.54114,1.75925 -1.23298,1.38334 -1.23298,2.28552 z"
       style=""
       id="path8103" /><path
       d="m 173.05829,128.75308 q 0.0752,0 0.0752,0.12029 0,0.27066 -0.40599,0.87211 -0.39094,0.60145 -0.84203,0.9924 -1.57882,1.39838 -3.15763,1.39838 -0.60145,0 -1.20291,-0.27066 -0.58642,-0.28569 -1.09765,-0.79692 -0.51124,-0.51124 -0.827,-1.36831 -0.31576,-0.85707 -0.31576,-1.90961 0,-0.64657 0.15036,-1.09766 0.30073,-0.91721 1.27809,-1.93968 0.9924,-1.02248 1.86451,-1.02248 0.24058,0 0.72174,0.0451 0.72174,0.0602 1.00743,0.15037 0.30073,0.0902 0.67664,0.3759 0.48116,0.36088 0.827,0.93226 0.36087,0.55634 0.36087,0.93225 0,0.48116 -0.37591,0.73678 -0.37591,0.24058 -1.45852,0.48116 -1.39838,0.31577 -2.76669,0.39095 l -1.39838,0.0752 0,0.60145 q 0,1.11269 1.03751,2.10509 0.78189,0.75182 1.62392,0.75182 0.64657,0 1.36831,-0.39095 0.73678,-0.40598 1.24802,-0.88714 0.51123,-0.48116 0.97736,-0.87211 0.46612,-0.40598 0.63152,-0.40598 z m -2.42085,-3.66887 q -0.46612,-0.42101 -0.7067,-0.52627 -0.22555,-0.12029 -0.60146,-0.12029 -0.75181,0 -1.12772,0.15037 -0.36087,0.13532 -0.73678,0.57138 -1.14277,1.30816 -1.14277,1.74421 0,0.19547 0.36088,0.19547 1.3683,0 3.87937,-0.57138 0.75182,-0.18043 0.75182,-0.63152 0,-0.21051 -0.67664,-0.81197 z"
       style=""
       id="path8105" /><path
       d="m 176.51947,128.45235 q -0.22554,0 -0.96232,-0.5413 -0.73678,-0.55635 -0.73678,-1.12773 0,-0.54131 0.76685,-1.4886 0.76685,-0.96232 1.84947,-1.23298 0.4962,-0.13532 1.30816,-0.13532 0.34584,0 0.51124,0.0902 0.1654,0.0902 0.45109,0.40599 0.46612,0.52627 0.46612,0.72174 0,0.18044 -0.19547,0.18044 -0.24058,0 -0.40598,-0.1654 -0.1654,-0.18044 -0.40598,-0.36088 -0.24058,-0.18043 -0.64656,-0.18043 -0.52627,0 -1.12773,0.28569 -0.60145,0.28569 -1.06758,0.79692 -0.6616,0.70671 -0.6616,0.96233 0,0.25562 0.39095,0.61649 0.39094,0.34584 1.30816,0.6616 1.44349,0.4962 1.95472,0.93225 0.51124,0.43606 0.51124,1.17284 0,0.69167 -0.24058,1.26305 -0.1654,0.43605 -0.70671,0.97736 -0.54131,0.54131 -1.06758,0.54131 -0.40598,0 -1.05254,-0.13533 -0.64657,-0.12029 -0.97737,-0.28569 -0.27065,-0.13533 -0.4962,-0.52627 -0.22554,-0.40598 -0.22554,-0.72175 0,-0.16539 0.0752,-0.28569 0.0902,-0.13532 0.21051,-0.13532 0.22555,0 0.42102,0.42101 0.18043,0.37591 0.72174,0.67664 0.55635,0.30073 1.03751,0.30073 0.64656,0 1.14276,-0.76686 0.4962,-0.78189 0.4962,-1.21794 0,-0.10525 -0.0602,-0.25562 -0.0451,-0.1654 -0.25561,-0.39094 -0.21051,-0.22555 -0.54131,-0.34584 -0.31576,-0.10525 -0.73678,-0.28569 -0.42102,-0.18043 -0.70671,-0.30073 -0.27065,-0.12029 -0.34584,-0.12029 z"
       style=""
       id="path8107" /><path
       d="m 183.07814,123.47533 q 0,-0.15037 0.22554,-0.24059 0.22555,-0.0902 0.36087,-0.0902 0.0752,0 0.4962,0.30072 0.43606,0.28569 0.69167,0.54131 0.81197,0.73678 1.80436,1.4886 1.00744,0.73678 1.44349,1.09765 0.45109,0.36087 0.45109,0.61649 0,0.22555 -0.3308,0.70671 -0.31576,0.46613 -1.41341,1.93969 -1.4886,1.99983 -1.57882,2.28552 -0.0601,0.15036 -0.27065,0.25562 -0.19547,0.10525 -0.40598,0.10525 -0.21051,0 -0.34584,-0.10525 -0.12029,-0.0902 -0.12029,-0.19547 0,-0.15037 0.27065,-0.55635 0.28569,-0.40598 0.43606,-0.46613 0.13532,-0.0451 0.48116,-0.52627 0.36087,-0.4962 1.59385,-2.31559 0.55635,-0.84204 0.55635,-1.03751 0,-0.0752 -0.46613,-0.46613 -0.46613,-0.40598 -1.11269,-0.85707 -2.76668,-1.98479 -2.76668,-2.48099 z"
       style=""
       id="path8109" /></g></svg>