<?xml version="1.0" encoding="UTF-8" standalone="no"?>
<!-- Generator: Adobe Illustrator 16.2.1, SVG Export Plug-In . SVG Version: 6.00 Build 0)  -->

<svg
   xmlns:dc="http://purl.org/dc/elements/1.1/"
   xmlns:cc="http://creativecommons.org/ns#"
   xmlns:rdf="http://www.w3.org/1999/02/22-rdf-syntax-ns#"
   xmlns:svg="http://www.w3.org/2000/svg"
   xmlns="http://www.w3.org/2000/svg"
   xmlns:sodipodi="http://sodipodi.sourceforge.net/DTD/sodipodi-0.dtd"
   xmlns:inkscape="http://www.inkscape.org/namespaces/inkscape"
   version="1.1"
   id="Layer_1"
   x="0px"
   y="0px"
   width="512px"
   height="512px"
   viewBox="0 0 512 512"
   enable-background="new 0 0 512 512"
   xml:space="preserve"
   sodipodi:docname="icon_import.svg"
   inkscape:version="0.92.2 (unknown)"><metadata
     id="metadata21"><rdf:RDF><cc:Work
         rdf:about=""><dc:format>image/svg+xml</dc:format><dc:type
           rdf:resource="http://purl.org/dc/dcmitype/StillImage" /><dc:title></dc:title></cc:Work></rdf:RDF></metadata><defs
     id="defs19" /><sodipodi:namedview
     pagecolor="#ffffff"
     bordercolor="#666666"
     borderopacity="1"
     objecttolerance="10"
     gridtolerance="10"
     guidetolerance="10"
     inkscape:pageopacity="0"
     inkscape:pageshadow="2"
     inkscape:window-width="1920"
     inkscape:window-height="1025"
     id="namedview17"
     showgrid="false"
     inkscape:zoom="0.4609375"
     inkscape:cx="-306.98305"
     inkscape:cy="256"
     inkscape:window-x="0"
     inkscape:window-y="27"
     inkscape:window-maximized="1"
     inkscape:current-layer="g14" /><g
     id="g14"><g
       id="g6"
       style="fill:#ffffff;fill-opacity:1;stroke:none"
       transform="rotate(180,256.17945,255.9995)"><g
         id="g4"
         style="fill:#ffffff;fill-opacity:1;stroke:none"><path
           d="m 330.967,284.104 c 6.48,-6.467 6.48,-16.951 0,-23.422 -6.48,-6.467 -17.342,-6.467 -23.823,0 L 272,295.432 V 176.58 c 0,-9.151 -6.839,-16.56 -15.999,-16.56 -9.162,0 -16.001,7.408 -16.001,16.56 v 118.852 l -35.005,-34.75 c -6.481,-6.467 -17.095,-6.467 -23.573,0 -6.482,6.471 -6.539,16.955 -0.057,23.422 l 63.07,63.023 c 0.02,0.02 0.028,0.037 0.05,0.057 0.725,0.716 1.513,1.367 2.368,1.945 0.102,0.067 0.2,0.134 0.302,0.2 0.322,0.206 0.651,0.403 0.99,0.587 0.117,0.064 0.231,0.133 0.35,0.193 0.421,0.218 0.849,0.423 1.292,0.605 0.002,10e-4 0.004,10e-4 0.006,0.002 0.405,0.167 0.817,0.308 1.233,0.442 0.112,0.037 0.222,0.085 0.335,0.118 0.151,0.047 0.307,0.074 0.461,0.115 1.424,0.385 2.872,0.588 4.315,0.588 1.442,0 2.89,-0.203 4.312,-0.588 0.153,-0.041 0.312,-0.068 0.464,-0.115 0.113,-0.033 0.224,-0.081 0.335,-0.118 0.416,-0.135 0.829,-0.275 1.233,-0.442 0.002,-0.001 0.004,-0.001 0.007,-0.002 0.441,-0.183 0.87,-0.387 1.289,-0.604 0.122,-0.064 0.24,-0.133 0.36,-0.198 0.332,-0.185 0.658,-0.376 0.975,-0.579 0.109,-0.069 0.217,-0.14 0.323,-0.212 0.408,-0.274 0.806,-0.562 1.184,-0.872 0.004,-0.002 0.007,-0.004 0.011,-0.006 0.406,-0.332 0.791,-0.684 1.162,-1.051 0.024,-0.022 0.051,-0.043 0.074,-0.066 z"
           id="path2"
           style="fill:#ffffff;fill-opacity:1;stroke:none"
           inkscape:connector-curvature="0" /></g></g><g
       id="g12"><path
         d="M168,392c-6.143,0-12.285-2.344-16.971-7.029l-112-112c-9.373-9.373-9.373-24.569,0-33.941l112-112    c9.373-9.372,24.568-9.372,33.941,0c9.371,9.372,9.371,24.568,0,33.941L89.941,256l95.029,95.029    c9.371,9.372,9.371,24.568,0,33.941C180.283,389.656,174.143,392,168,392z"
         id="path8"
         style="stroke:none;fill:#ffffff;fill-opacity:1" /><path
         d="M344,392c6.143,0,12.285-2.344,16.971-7.029l112-112c9.373-9.373,9.373-24.569,0-33.941l-112-112    c-9.373-9.372-24.568-9.372-33.941,0c-9.371,9.372-9.371,24.568,0,33.941L422.059,256l-95.029,95.029    c-9.371,9.372-9.371,24.568,0,33.941C331.717,389.656,337.857,392,344,392z"
         id="path10"
         style="stroke:none;fill:#ffffff;fill-opacity:1" /></g></g></svg>